<?xml version="1.0" encoding="UTF-8" standalone="no"?>
<!-- Created by Symbolator http://kevinpt.github.io/symbolator -->
<svg xmlns="http://www.w3.org/2000/svg"
xmlns:xlink="http://www.w3.org/1999/xlink"
xml:space="preserve"
width="291" height="295" viewBox="-25 -56 291.0 295.0" version="1.1">
<style type="text/css">
<![CDATA[
.fnt1 { fill:#000000; font-family:Times; font-size:12pt; font-weight:normal; font-style:italic; }
.fnt2 { fill:#000000; font-family:Helvetica; font-size:12pt; font-weight:normal; font-style:normal; text-decoration: overline; }
.fnt3 { fill:#000000; font-family:Helvetica; font-size:12pt; font-weight:normal; font-style:normal; }
.fnt4 { fill:#000000; font-family:Helvetica; font-size:16pt; font-weight:bold; font-style:normal; }
.fnt5 { fill:#000000; font-family:Helvetica; font-size:10pt; font-style:normal; }
.label {fill:#000;
  text-anchor:middle;
  font-size:16pt; font-weight:bold; font-family:Sans;}
.link {fill: #0D47A1;}
.link:hover {fill: #0D47A1; text-decoration:underline;}
.link:visited {fill: #4A148C;}
]]>
</style>
<defs>
<marker id="arrow_fwd" markerWidth="8.0" markerHeight="8.0" viewBox="0 0 8.0 8.0" refX="3.2" refY="4.0" orient="auto" markerUnits="userSpaceOnUse">
<g transform="translate(-0.0,4.0)"><path d="M 0 -4 C 2 -1, 2 1, 0 4 L 8 0 z" stroke="none" fill="#000000"/>
</g>
</marker>
<marker id="arrow_back" markerWidth="8.0" markerHeight="8.0" viewBox="0 0 8.0 8.0" refX="4.8" refY="4.0" orient="auto" markerUnits="userSpaceOnUse">
<g transform="translate(8.0,4.0)"><path d="M 0 -4 C -2 -1, -2 1, 0 4 L -8 0 z" stroke="none" fill="#000000"/>
</g>
</marker>
</defs>
<rect x="-25" y="-56" width="100%" height="100%" fill="white"/><g transform="translate(0,0)">
<rect x="0" y="-21.0" width="240" height="105.0" stroke="#000000" fill="#FFF6B1" stroke-width="1"/>
<text class="fnt1" x="120.0" y="-5.0" text-anchor="middle" dy="5.5">Control Signals</text>
<g transform="translate(0,19)">
<line x1="-20" y1="0" x2="0" y2="0" stroke="#000000" fill="none" stroke-width="1"/>
<ellipse cx="-3.0" cy="0.0" rx="3.0" ry="3.0" stroke="#000000" fill="#FFFFFF" stroke-width="1"/>
<text class="fnt2" x="10" y="0" text-anchor="normal" dy="5.5">HLD_H</text>
</g>
<g transform="translate(0,41)">
<line x1="-20" y1="0" x2="0" y2="0" stroke="#000000" fill="none" stroke-width="1"/>
<text class="fnt3" x="10" y="0" text-anchor="normal" dy="5.5">IBUF_SEL</text>
</g>
<g transform="translate(0,63)">
<line x1="-20" y1="0" x2="0" y2="0" stroke="#000000" fill="none" stroke-width="1"/>
<text class="fnt3" x="10" y="0" text-anchor="normal" dy="5.5">OD_H</text>
</g>
</g>
<g transform="translate(0,105.0)">
<rect x="0" y="-21.0" width="240" height="127.0" stroke="#000000" fill="#FFBBBB" stroke-width="1"/>
<text class="fnt1" x="120.0" y="-5.0" text-anchor="middle" dy="5.5">Power</text>
<g transform="translate(0,19)">
<line x1="-20" y1="0" x2="0" y2="0" stroke="#000000" fill="none" stroke-width="1"/>
<text class="fnt3" x="10" y="0" text-anchor="normal" dy="5.5">VREF_SEL</text>
</g>
<g transform="translate(0,41)">
<line x1="-20" y1="0" x2="0" y2="0" stroke="#000000" fill="none" stroke-width="1"/>
<text class="fnt3" x="10" y="0" text-anchor="normal" dy="5.5">VREG_EN</text>
</g>
<g transform="translate(0,63)">
<line x1="-20" y1="0" x2="0" y2="0" stroke="#000000" fill="none" stroke-width="1"/>
<text class="fnt3" x="10" y="0" text-anchor="normal" dy="5.5">VTRIP_SEL</text>
</g>
<g transform="translate(0,85)">
<line x1="-20" y1="0" x2="0" y2="0" stroke="#000000" fill="none" stroke-width="1"/>
<text class="fnt3" x="10" y="0" text-anchor="normal" dy="5.5">VOHREF</text>
</g>
<g transform="translate(240,19)">
<line x1="16.16" y1="4.702643708725836e-16" x2="3.84" y2="-4.702643708725836e-16" stroke="#000000" fill="none" stroke-width="1" marker-start="url(#arrow_back)" marker-end="url(#arrow_fwd)"/>
<text class="fnt3" x="-10" y="0" text-anchor="end" dy="5.5">REFLEAK_BIAS</text>
</g>
<g transform="translate(240,41)">
<line x1="20" y1="0" x2="0" y2="0" stroke="#000000" fill="none" stroke-width="1"/>
<text class="fnt3" x="-10" y="0" text-anchor="end" dy="5.5">VINREF</text>
</g>
<g transform="translate(240,63)">
<line x1="20" y1="0" x2="0" y2="0" stroke="#000000" fill="none" stroke-width="1"/>
<text class="fnt3" x="-10" y="0" text-anchor="end" dy="5.5">VOUTREF</text>
</g>
</g>
<rect x="1.0" y="-20.0" width="238.0" height="230.0" stroke="#000000" fill="none" stroke-width="3"/>
<text class="fnt4" x="120.0" y="-30.0" text-anchor="middle" dy="-1.0">top_refgen</text>
<text class="fnt5" x="120.0" y="230.0" text-anchor="middle" dy="1.0">sky130_fd_io</text>
</svg>