<?xml version="1.0" encoding="UTF-8" standalone="no"?>
<!-- Created by Symbolator http://kevinpt.github.io/symbolator -->
<svg xmlns="http://www.w3.org/2000/svg"
xmlns:xlink="http://www.w3.org/1999/xlink"
xml:space="preserve"
width="244" height="207" viewBox="-52 -56 244.0 207.0" version="1.1">
<style type="text/css">
<![CDATA[
.fnt1 { fill:#000000; font-family:Times; font-size:12pt; font-weight:normal; font-style:italic; }
.fnt2 { fill:#000000; font-family:Helvetica; font-size:12pt; font-weight:normal; font-style:normal; }
.fnt3 { fill:#000000; font-family:Helvetica; font-size:12pt; font-weight:normal; font-style:normal; text-decoration: overline; }
.fnt4 { fill:#000000; font-family:Helvetica; font-size:16pt; font-weight:bold; font-style:normal; }
.fnt5 { fill:#000000; font-family:Helvetica; font-size:10pt; font-style:normal; }
.label {fill:#000;
  text-anchor:middle;
  font-size:16pt; font-weight:bold; font-family:Sans;}
.link {fill: #0D47A1;}
.link:hover {fill: #0D47A1; text-decoration:underline;}
.link:visited {fill: #4A148C;}
]]>
</style>
<defs>
<marker id="arrow_fwd" markerWidth="8.0" markerHeight="8.0" viewBox="0 0 8.0 8.0" refX="3.2" refY="4.0" orient="auto" markerUnits="userSpaceOnUse">
<g transform="translate(-0.0,4.0)"><path d="M 0 -4 C 2 -1, 2 1, 0 4 L 8 0 z" stroke="none" fill="#000000"/>
</g>
</marker>
<marker id="arrow_back" markerWidth="8.0" markerHeight="8.0" viewBox="0 0 8.0 8.0" refX="4.8" refY="4.0" orient="auto" markerUnits="userSpaceOnUse">
<g transform="translate(8.0,4.0)"><path d="M 0 -4 C -2 -1, -2 1, 0 4 L -8 0 z" stroke="none" fill="#000000"/>
</g>
</marker>
</defs>
<rect x="-52" y="-56" width="100%" height="100%" fill="white"/><g transform="translate(0,0)">
<rect x="0" y="-21.0" width="140" height="61.0" stroke="#000000" fill="#CCFED2" stroke-width="1"/>
<text class="fnt1" x="70.0" y="-5.0" text-anchor="middle" dy="5.5">Data Signals</text>
<g transform="translate(140,19)">
<line x1="16.16" y1="4.702643708725836e-16" x2="3.84" y2="-4.702643708725836e-16" stroke="#000000" fill="none" stroke-width="1" marker-start="url(#arrow_back)" marker-end="url(#arrow_fwd)"/>
<text class="fnt2" x="-10" y="0" text-anchor="end" dy="5.5">G_PAD</text>
</g>
</g>
<g transform="translate(0,61.0)">
<rect x="0" y="-21.0" width="140" height="83.0" stroke="#000000" fill="#FFF6B1" stroke-width="1"/>
<text class="fnt1" x="70.0" y="-5.0" text-anchor="middle" dy="5.5">Control Signals</text>
<g transform="translate(140,19)">
<line x1="16.16" y1="4.702643708725836e-16" x2="3.84" y2="-4.702643708725836e-16" stroke="#000000" fill="none" stroke-width="1" marker-start="url(#arrow_back)" marker-end="url(#arrow_fwd)"/>
<text class="fnt2" x="-10" y="0" text-anchor="end" dy="5.5">AMUXBUS_A</text>
</g>
<g transform="translate(140,41)">
<line x1="16.16" y1="4.702643708725836e-16" x2="3.84" y2="-4.702643708725836e-16" stroke="#000000" fill="none" stroke-width="1" marker-start="url(#arrow_back)" marker-end="url(#arrow_fwd)"/>
<ellipse cx="3.0" cy="0.0" rx="3.0" ry="3.0" stroke="#000000" fill="#FFFFFF" stroke-width="1"/>
<text class="fnt3" x="-10" y="0" text-anchor="end" dy="5.5">AMUXBUS</text>
</g>
</g>
<rect x="1.0" y="-20.0" width="138.0" height="142.0" stroke="#000000" fill="none" stroke-width="3"/>
<text class="fnt4" x="70.0" y="-30.0" text-anchor="middle" dy="-1.0">top_ground_hvc_wpad</text>
<text class="fnt5" x="70.0" y="142.0" text-anchor="middle" dy="1.0">sky130_fd_io</text>
</svg>